<mxfile host="app.diagrams.net" modified="2022-04-07T17:26:56.602Z" agent="5.0 (Windows NT 10.0; Win64; x64) AppleWebKit/537.36 (KHTML, like Gecko) Chrome/100.0.4896.60 Safari/537.36 Edg/100.0.1185.29" etag="voSL3lC-m-MmaHd5SCDF" version="17.4.0" type="github">
  <diagram id="iiRm37w-VX7AsoGizNBL" name="Page-1">
    <mxGraphModel dx="2272" dy="1932" grid="1" gridSize="10" guides="1" tooltips="1" connect="1" arrows="1" fold="1" page="1" pageScale="1" pageWidth="850" pageHeight="1100" math="0" shadow="0">
      <root>
        <mxCell id="0" />
        <mxCell id="1" parent="0" />
        <mxCell id="pm9xN6t0t-_ZDv9CtfRk-34" value="" style="whiteSpace=wrap;html=1;aspect=fixed;" vertex="1" parent="1">
          <mxGeometry x="450" y="440" width="660" height="660" as="geometry" />
        </mxCell>
        <mxCell id="pm9xN6t0t-_ZDv9CtfRk-31" value="" style="whiteSpace=wrap;html=1;aspect=fixed;" vertex="1" parent="1">
          <mxGeometry x="460" y="40" width="340" height="340" as="geometry" />
        </mxCell>
        <mxCell id="pm9xN6t0t-_ZDv9CtfRk-13" style="edgeStyle=orthogonalEdgeStyle;rounded=0;orthogonalLoop=1;jettySize=auto;html=1;" edge="1" parent="1" source="pm9xN6t0t-_ZDv9CtfRk-1" target="pm9xN6t0t-_ZDv9CtfRk-10">
          <mxGeometry relative="1" as="geometry" />
        </mxCell>
        <mxCell id="pm9xN6t0t-_ZDv9CtfRk-1" value="HIT APi" style="rounded=0;whiteSpace=wrap;html=1;" vertex="1" parent="1">
          <mxGeometry x="50" y="70" width="120" height="60" as="geometry" />
        </mxCell>
        <mxCell id="pm9xN6t0t-_ZDv9CtfRk-9" style="edgeStyle=orthogonalEdgeStyle;rounded=0;orthogonalLoop=1;jettySize=auto;html=1;" edge="1" parent="1" source="pm9xN6t0t-_ZDv9CtfRk-2" target="pm9xN6t0t-_ZDv9CtfRk-3">
          <mxGeometry relative="1" as="geometry" />
        </mxCell>
        <mxCell id="pm9xN6t0t-_ZDv9CtfRk-2" value="Get Entry Role" style="rounded=0;whiteSpace=wrap;html=1;" vertex="1" parent="1">
          <mxGeometry x="490" y="70" width="120" height="60" as="geometry" />
        </mxCell>
        <mxCell id="pm9xN6t0t-_ZDv9CtfRk-5" style="edgeStyle=orthogonalEdgeStyle;rounded=0;orthogonalLoop=1;jettySize=auto;html=1;entryX=0.5;entryY=1;entryDx=0;entryDy=0;" edge="1" parent="1" source="pm9xN6t0t-_ZDv9CtfRk-3" target="pm9xN6t0t-_ZDv9CtfRk-4">
          <mxGeometry relative="1" as="geometry" />
        </mxCell>
        <mxCell id="pm9xN6t0t-_ZDv9CtfRk-3" value="Get Max PH" style="rounded=0;whiteSpace=wrap;html=1;" vertex="1" parent="1">
          <mxGeometry x="490" y="150" width="120" height="60" as="geometry" />
        </mxCell>
        <mxCell id="pm9xN6t0t-_ZDv9CtfRk-8" style="edgeStyle=orthogonalEdgeStyle;rounded=0;orthogonalLoop=1;jettySize=auto;html=1;" edge="1" parent="1" source="pm9xN6t0t-_ZDv9CtfRk-4" target="pm9xN6t0t-_ZDv9CtfRk-6">
          <mxGeometry relative="1" as="geometry">
            <Array as="points">
              <mxPoint x="740" y="180" />
              <mxPoint x="740" y="180" />
            </Array>
          </mxGeometry>
        </mxCell>
        <mxCell id="pm9xN6t0t-_ZDv9CtfRk-4" value="Check Matrix BOD" style="rounded=0;whiteSpace=wrap;html=1;" vertex="1" parent="1">
          <mxGeometry x="650" y="90" width="120" height="60" as="geometry" />
        </mxCell>
        <mxCell id="pm9xN6t0t-_ZDv9CtfRk-26" style="edgeStyle=orthogonalEdgeStyle;rounded=0;orthogonalLoop=1;jettySize=auto;html=1;" edge="1" parent="1" source="pm9xN6t0t-_ZDv9CtfRk-6">
          <mxGeometry relative="1" as="geometry">
            <mxPoint x="610" y="260" as="targetPoint" />
          </mxGeometry>
        </mxCell>
        <mxCell id="pm9xN6t0t-_ZDv9CtfRk-6" value="Check By PH&lt;br&gt;(User Based only)" style="rounded=0;whiteSpace=wrap;html=1;" vertex="1" parent="1">
          <mxGeometry x="650" y="200" width="120" height="60" as="geometry" />
        </mxCell>
        <mxCell id="pm9xN6t0t-_ZDv9CtfRk-12" style="edgeStyle=orthogonalEdgeStyle;rounded=0;orthogonalLoop=1;jettySize=auto;html=1;" edge="1" parent="1" source="pm9xN6t0t-_ZDv9CtfRk-10" target="pm9xN6t0t-_ZDv9CtfRk-11">
          <mxGeometry relative="1" as="geometry" />
        </mxCell>
        <mxCell id="pm9xN6t0t-_ZDv9CtfRk-10" value="Create Unique token&lt;br&gt;(UUID)" style="rounded=0;whiteSpace=wrap;html=1;" vertex="1" parent="1">
          <mxGeometry x="50" y="150" width="120" height="60" as="geometry" />
        </mxCell>
        <mxCell id="pm9xN6t0t-_ZDv9CtfRk-16" style="edgeStyle=orthogonalEdgeStyle;rounded=0;orthogonalLoop=1;jettySize=auto;html=1;" edge="1" parent="1" source="pm9xN6t0t-_ZDv9CtfRk-11" target="pm9xN6t0t-_ZDv9CtfRk-15">
          <mxGeometry relative="1" as="geometry" />
        </mxCell>
        <mxCell id="pm9xN6t0t-_ZDv9CtfRk-11" value="Insert Log APi&amp;nbsp;&lt;br&gt;(Request)" style="rounded=0;whiteSpace=wrap;html=1;" vertex="1" parent="1">
          <mxGeometry x="190" y="150" width="120" height="60" as="geometry" />
        </mxCell>
        <mxCell id="pm9xN6t0t-_ZDv9CtfRk-22" style="edgeStyle=orthogonalEdgeStyle;rounded=0;orthogonalLoop=1;jettySize=auto;html=1;entryX=0.5;entryY=0;entryDx=0;entryDy=0;" edge="1" parent="1" source="pm9xN6t0t-_ZDv9CtfRk-15" target="pm9xN6t0t-_ZDv9CtfRk-20">
          <mxGeometry relative="1" as="geometry">
            <Array as="points">
              <mxPoint x="390" y="270" />
              <mxPoint x="260" y="270" />
            </Array>
          </mxGeometry>
        </mxCell>
        <mxCell id="pm9xN6t0t-_ZDv9CtfRk-24" style="edgeStyle=orthogonalEdgeStyle;rounded=0;orthogonalLoop=1;jettySize=auto;html=1;entryX=0;entryY=0.5;entryDx=0;entryDy=0;" edge="1" parent="1" source="pm9xN6t0t-_ZDv9CtfRk-15" target="pm9xN6t0t-_ZDv9CtfRk-2">
          <mxGeometry relative="1" as="geometry">
            <Array as="points">
              <mxPoint x="440" y="180" />
              <mxPoint x="440" y="100" />
            </Array>
          </mxGeometry>
        </mxCell>
        <mxCell id="pm9xN6t0t-_ZDv9CtfRk-15" value="Is Valid &lt;br&gt;Body?" style="rhombus;whiteSpace=wrap;html=1;" vertex="1" parent="1">
          <mxGeometry x="350" y="140" width="80" height="80" as="geometry" />
        </mxCell>
        <mxCell id="pm9xN6t0t-_ZDv9CtfRk-18" value="yes" style="text;html=1;align=center;verticalAlign=middle;resizable=0;points=[];autosize=1;strokeColor=none;fillColor=none;" vertex="1" parent="1">
          <mxGeometry x="400" y="110" width="30" height="20" as="geometry" />
        </mxCell>
        <mxCell id="pm9xN6t0t-_ZDv9CtfRk-19" value="End&lt;br&gt;(&#39;Not OK&#39;)" style="ellipse;whiteSpace=wrap;html=1;aspect=fixed;" vertex="1" parent="1">
          <mxGeometry x="70" y="390" width="80" height="80" as="geometry" />
        </mxCell>
        <mxCell id="pm9xN6t0t-_ZDv9CtfRk-21" style="edgeStyle=orthogonalEdgeStyle;rounded=0;orthogonalLoop=1;jettySize=auto;html=1;" edge="1" parent="1" source="pm9xN6t0t-_ZDv9CtfRk-20" target="pm9xN6t0t-_ZDv9CtfRk-19">
          <mxGeometry relative="1" as="geometry" />
        </mxCell>
        <mxCell id="pm9xN6t0t-_ZDv9CtfRk-20" value="Insert Log, Return NO (Response)" style="rounded=0;whiteSpace=wrap;html=1;" vertex="1" parent="1">
          <mxGeometry x="200" y="400" width="120" height="60" as="geometry" />
        </mxCell>
        <mxCell id="pm9xN6t0t-_ZDv9CtfRk-23" value="no&lt;br&gt;" style="text;html=1;align=center;verticalAlign=middle;resizable=0;points=[];autosize=1;strokeColor=none;fillColor=none;" vertex="1" parent="1">
          <mxGeometry x="350" y="240" width="30" height="20" as="geometry" />
        </mxCell>
        <mxCell id="pm9xN6t0t-_ZDv9CtfRk-30" style="edgeStyle=orthogonalEdgeStyle;rounded=0;orthogonalLoop=1;jettySize=auto;html=1;" edge="1" parent="1" source="pm9xN6t0t-_ZDv9CtfRk-27" target="pm9xN6t0t-_ZDv9CtfRk-29">
          <mxGeometry relative="1" as="geometry">
            <Array as="points">
              <mxPoint x="550" y="330" />
            </Array>
          </mxGeometry>
        </mxCell>
        <mxCell id="pm9xN6t0t-_ZDv9CtfRk-27" value="Compare matrix to user based then store max PH" style="rounded=0;whiteSpace=wrap;html=1;" vertex="1" parent="1">
          <mxGeometry x="490" y="240" width="120" height="60" as="geometry" />
        </mxCell>
        <mxCell id="pm9xN6t0t-_ZDv9CtfRk-38" style="edgeStyle=orthogonalEdgeStyle;rounded=0;orthogonalLoop=1;jettySize=auto;html=1;" edge="1" parent="1" source="pm9xN6t0t-_ZDv9CtfRk-29" target="pm9xN6t0t-_ZDv9CtfRk-37">
          <mxGeometry relative="1" as="geometry" />
        </mxCell>
        <mxCell id="pm9xN6t0t-_ZDv9CtfRk-29" value="Check Max Approval Level By User then Store" style="rounded=0;whiteSpace=wrap;html=1;" vertex="1" parent="1">
          <mxGeometry x="650" y="300" width="120" height="60" as="geometry" />
        </mxCell>
        <mxCell id="pm9xN6t0t-_ZDv9CtfRk-32" value="Pengecekan Approval (NIP)" style="rounded=0;whiteSpace=wrap;html=1;" vertex="1" parent="1">
          <mxGeometry x="480" width="120" height="60" as="geometry" />
        </mxCell>
        <mxCell id="pm9xN6t0t-_ZDv9CtfRk-35" value="Pengecekan By Entry,PH&amp;amp;App level" style="rounded=0;whiteSpace=wrap;html=1;" vertex="1" parent="1">
          <mxGeometry x="470" y="400" width="120" height="60" as="geometry" />
        </mxCell>
        <mxCell id="pm9xN6t0t-_ZDv9CtfRk-39" style="edgeStyle=orthogonalEdgeStyle;rounded=0;orthogonalLoop=1;jettySize=auto;html=1;" edge="1" parent="1" source="pm9xN6t0t-_ZDv9CtfRk-37" target="pm9xN6t0t-_ZDv9CtfRk-20">
          <mxGeometry relative="1" as="geometry">
            <Array as="points">
              <mxPoint x="410" y="505" />
              <mxPoint x="410" y="430" />
            </Array>
          </mxGeometry>
        </mxCell>
        <mxCell id="pm9xN6t0t-_ZDv9CtfRk-44" style="edgeStyle=orthogonalEdgeStyle;rounded=0;orthogonalLoop=1;jettySize=auto;html=1;" edge="1" parent="1" source="pm9xN6t0t-_ZDv9CtfRk-37" target="pm9xN6t0t-_ZDv9CtfRk-43">
          <mxGeometry relative="1" as="geometry" />
        </mxCell>
        <mxCell id="pm9xN6t0t-_ZDv9CtfRk-37" value="&lt;span&gt;Check PH Request &amp;gt; PH Approver&lt;/span&gt;" style="rhombus;whiteSpace=wrap;html=1;" vertex="1" parent="1">
          <mxGeometry x="660" y="450" width="100" height="110" as="geometry" />
        </mxCell>
        <mxCell id="pm9xN6t0t-_ZDv9CtfRk-40" value="NO" style="text;html=1;strokeColor=none;fillColor=none;align=center;verticalAlign=middle;whiteSpace=wrap;rounded=0;" vertex="1" parent="1">
          <mxGeometry x="600" y="470" width="60" height="30" as="geometry" />
        </mxCell>
        <mxCell id="pm9xN6t0t-_ZDv9CtfRk-46" style="edgeStyle=orthogonalEdgeStyle;rounded=0;orthogonalLoop=1;jettySize=auto;html=1;" edge="1" parent="1" source="pm9xN6t0t-_ZDv9CtfRk-43" target="pm9xN6t0t-_ZDv9CtfRk-45">
          <mxGeometry relative="1" as="geometry" />
        </mxCell>
        <mxCell id="pm9xN6t0t-_ZDv9CtfRk-43" value="Check Entry Role For Deviasi" style="rounded=0;whiteSpace=wrap;html=1;" vertex="1" parent="1">
          <mxGeometry x="650" y="590" width="120" height="60" as="geometry" />
        </mxCell>
        <mxCell id="pm9xN6t0t-_ZDv9CtfRk-47" style="edgeStyle=orthogonalEdgeStyle;rounded=0;orthogonalLoop=1;jettySize=auto;html=1;entryX=0.442;entryY=1;entryDx=0;entryDy=0;entryPerimeter=0;" edge="1" parent="1" source="pm9xN6t0t-_ZDv9CtfRk-45" target="pm9xN6t0t-_ZDv9CtfRk-20">
          <mxGeometry relative="1" as="geometry" />
        </mxCell>
        <mxCell id="pm9xN6t0t-_ZDv9CtfRk-51" style="edgeStyle=orthogonalEdgeStyle;rounded=0;orthogonalLoop=1;jettySize=auto;html=1;" edge="1" parent="1" source="pm9xN6t0t-_ZDv9CtfRk-45" target="pm9xN6t0t-_ZDv9CtfRk-50">
          <mxGeometry relative="1" as="geometry" />
        </mxCell>
        <mxCell id="pm9xN6t0t-_ZDv9CtfRk-45" value="&lt;span&gt;IS Required Deviasi Entry Role All Included in Approver Role Entry&lt;/span&gt;" style="rhombus;whiteSpace=wrap;html=1;" vertex="1" parent="1">
          <mxGeometry x="605" y="680" width="210" height="220" as="geometry" />
        </mxCell>
        <mxCell id="pm9xN6t0t-_ZDv9CtfRk-48" value="NO" style="text;html=1;strokeColor=none;fillColor=none;align=center;verticalAlign=middle;whiteSpace=wrap;rounded=0;" vertex="1" parent="1">
          <mxGeometry x="540" y="755" width="60" height="30" as="geometry" />
        </mxCell>
        <mxCell id="pm9xN6t0t-_ZDv9CtfRk-49" value="&lt;h1&gt;Contoh&lt;/h1&gt;&lt;div&gt;[&#39;1&#39;,&#39;2&#39;] DB Deviasi&lt;/div&gt;&lt;div&gt;&lt;br&gt;&lt;/div&gt;&lt;div&gt;Approver&lt;/div&gt;&lt;div&gt;[&#39;1&#39;]&lt;/div&gt;" style="text;html=1;strokeColor=none;fillColor=none;spacing=5;spacingTop=-20;whiteSpace=wrap;overflow=hidden;rounded=0;" vertex="1" parent="1">
          <mxGeometry x="830" y="740" width="190" height="120" as="geometry" />
        </mxCell>
        <mxCell id="pm9xN6t0t-_ZDv9CtfRk-53" style="edgeStyle=orthogonalEdgeStyle;rounded=0;orthogonalLoop=1;jettySize=auto;html=1;" edge="1" parent="1" source="pm9xN6t0t-_ZDv9CtfRk-50" target="pm9xN6t0t-_ZDv9CtfRk-52">
          <mxGeometry relative="1" as="geometry" />
        </mxCell>
        <mxCell id="pm9xN6t0t-_ZDv9CtfRk-50" value="Check Max App Level For Deviasi" style="rounded=0;whiteSpace=wrap;html=1;" vertex="1" parent="1">
          <mxGeometry x="650" y="970" width="120" height="60" as="geometry" />
        </mxCell>
        <mxCell id="pm9xN6t0t-_ZDv9CtfRk-56" style="edgeStyle=orthogonalEdgeStyle;rounded=0;orthogonalLoop=1;jettySize=auto;html=1;" edge="1" parent="1" source="pm9xN6t0t-_ZDv9CtfRk-52" target="pm9xN6t0t-_ZDv9CtfRk-54">
          <mxGeometry relative="1" as="geometry" />
        </mxCell>
        <mxCell id="pm9xN6t0t-_ZDv9CtfRk-52" value="Check Max App Level For Template" style="rounded=0;whiteSpace=wrap;html=1;" vertex="1" parent="1">
          <mxGeometry x="820" y="970" width="120" height="60" as="geometry" />
        </mxCell>
        <mxCell id="pm9xN6t0t-_ZDv9CtfRk-57" style="edgeStyle=orthogonalEdgeStyle;rounded=0;orthogonalLoop=1;jettySize=auto;html=1;entryX=0.25;entryY=1;entryDx=0;entryDy=0;" edge="1" parent="1" source="pm9xN6t0t-_ZDv9CtfRk-54" target="pm9xN6t0t-_ZDv9CtfRk-20">
          <mxGeometry relative="1" as="geometry">
            <Array as="points">
              <mxPoint x="1050" y="1090" />
              <mxPoint x="230" y="1090" />
            </Array>
          </mxGeometry>
        </mxCell>
        <mxCell id="pm9xN6t0t-_ZDv9CtfRk-60" style="edgeStyle=orthogonalEdgeStyle;rounded=0;orthogonalLoop=1;jettySize=auto;html=1;entryX=0.5;entryY=1;entryDx=0;entryDy=0;" edge="1" parent="1" source="pm9xN6t0t-_ZDv9CtfRk-54" target="pm9xN6t0t-_ZDv9CtfRk-59">
          <mxGeometry relative="1" as="geometry" />
        </mxCell>
        <mxCell id="pm9xN6t0t-_ZDv9CtfRk-54" value="&lt;span&gt;IS Request Level &amp;gt; Approver Level&lt;/span&gt;" style="rhombus;whiteSpace=wrap;html=1;" vertex="1" parent="1">
          <mxGeometry x="990" y="935" width="120" height="130" as="geometry" />
        </mxCell>
        <mxCell id="pm9xN6t0t-_ZDv9CtfRk-58" value="NO" style="text;html=1;strokeColor=none;fillColor=none;align=center;verticalAlign=middle;whiteSpace=wrap;rounded=0;" vertex="1" parent="1">
          <mxGeometry x="980" y="1060" width="60" height="30" as="geometry" />
        </mxCell>
        <mxCell id="pm9xN6t0t-_ZDv9CtfRk-62" style="edgeStyle=orthogonalEdgeStyle;rounded=0;orthogonalLoop=1;jettySize=auto;html=1;" edge="1" parent="1" source="pm9xN6t0t-_ZDv9CtfRk-59" target="pm9xN6t0t-_ZDv9CtfRk-61">
          <mxGeometry relative="1" as="geometry" />
        </mxCell>
        <mxCell id="pm9xN6t0t-_ZDv9CtfRk-59" value="Insert Log, Return OK (Response)" style="rounded=0;whiteSpace=wrap;html=1;" vertex="1" parent="1">
          <mxGeometry x="990" y="840" width="120" height="60" as="geometry" />
        </mxCell>
        <mxCell id="pm9xN6t0t-_ZDv9CtfRk-61" value="End&lt;br&gt;(&#39;OK&#39;)" style="ellipse;whiteSpace=wrap;html=1;aspect=fixed;" vertex="1" parent="1">
          <mxGeometry x="1010" y="680" width="80" height="80" as="geometry" />
        </mxCell>
        <mxCell id="pm9xN6t0t-_ZDv9CtfRk-63" value="User" style="swimlane;fontStyle=0;childLayout=stackLayout;horizontal=1;startSize=30;horizontalStack=0;resizeParent=1;resizeParentMax=0;resizeLast=0;collapsible=1;marginBottom=0;" vertex="1" parent="1">
          <mxGeometry x="880" y="-130" width="140" height="180" as="geometry" />
        </mxCell>
        <mxCell id="pm9xN6t0t-_ZDv9CtfRk-64" value="user_id PRIMARY INT " style="text;strokeColor=none;fillColor=none;align=left;verticalAlign=middle;spacingLeft=4;spacingRight=4;overflow=hidden;points=[[0,0.5],[1,0.5]];portConstraint=eastwest;rotatable=0;fontStyle=1" vertex="1" parent="pm9xN6t0t-_ZDv9CtfRk-63">
          <mxGeometry y="30" width="140" height="30" as="geometry" />
        </mxCell>
        <mxCell id="pm9xN6t0t-_ZDv9CtfRk-65" value="nip VARCHAR(20)" style="text;strokeColor=none;fillColor=none;align=left;verticalAlign=middle;spacingLeft=4;spacingRight=4;overflow=hidden;points=[[0,0.5],[1,0.5]];portConstraint=eastwest;rotatable=0;" vertex="1" parent="pm9xN6t0t-_ZDv9CtfRk-63">
          <mxGeometry y="60" width="140" height="30" as="geometry" />
        </mxCell>
        <mxCell id="pm9xN6t0t-_ZDv9CtfRk-66" value="app_level INT" style="text;strokeColor=none;fillColor=none;align=left;verticalAlign=middle;spacingLeft=4;spacingRight=4;overflow=hidden;points=[[0,0.5],[1,0.5]];portConstraint=eastwest;rotatable=0;" vertex="1" parent="pm9xN6t0t-_ZDv9CtfRk-63">
          <mxGeometry y="90" width="140" height="30" as="geometry" />
        </mxCell>
        <mxCell id="pm9xN6t0t-_ZDv9CtfRk-69" value="PH money" style="text;strokeColor=none;fillColor=none;align=left;verticalAlign=middle;spacingLeft=4;spacingRight=4;overflow=hidden;points=[[0,0.5],[1,0.5]];portConstraint=eastwest;rotatable=0;" vertex="1" parent="pm9xN6t0t-_ZDv9CtfRk-63">
          <mxGeometry y="120" width="140" height="30" as="geometry" />
        </mxCell>
        <mxCell id="pm9xN6t0t-_ZDv9CtfRk-70" value="role_id INT" style="text;strokeColor=none;fillColor=none;align=left;verticalAlign=middle;spacingLeft=4;spacingRight=4;overflow=hidden;points=[[0,0.5],[1,0.5]];portConstraint=eastwest;rotatable=0;" vertex="1" parent="pm9xN6t0t-_ZDv9CtfRk-63">
          <mxGeometry y="150" width="140" height="30" as="geometry" />
        </mxCell>
        <mxCell id="pm9xN6t0t-_ZDv9CtfRk-68" value="&lt;h1&gt;Notes CMC CA&lt;/h1&gt;&lt;div&gt;CMC dan CA punya app_level 0&lt;/div&gt;" style="text;html=1;strokeColor=none;fillColor=none;spacing=5;spacingTop=-20;whiteSpace=wrap;overflow=hidden;rounded=0;" vertex="1" parent="1">
          <mxGeometry x="1070" y="-130" width="190" height="120" as="geometry" />
        </mxCell>
        <mxCell id="pm9xN6t0t-_ZDv9CtfRk-71" value="&lt;h1&gt;Notes APP level&lt;/h1&gt;&lt;div&gt;0. CMC/CA&lt;/div&gt;&lt;div&gt;1. BM&lt;/div&gt;&lt;div&gt;2. RM&lt;/div&gt;&lt;div&gt;3. DH/DD&lt;/div&gt;&lt;div&gt;4. BOD&lt;/div&gt;" style="text;html=1;strokeColor=none;fillColor=none;spacing=5;spacingTop=-20;whiteSpace=wrap;overflow=hidden;rounded=0;" vertex="1" parent="1">
          <mxGeometry x="740" y="-130" width="190" height="150" as="geometry" />
        </mxCell>
        <mxCell id="pm9xN6t0t-_ZDv9CtfRk-72" value="&lt;h1&gt;Roles&lt;/h1&gt;&lt;div&gt;CA/CMC&lt;/div&gt;" style="text;html=1;strokeColor=none;fillColor=none;spacing=5;spacingTop=-20;whiteSpace=wrap;overflow=hidden;rounded=0;" vertex="1" parent="1">
          <mxGeometry x="1070" y="-50" width="190" height="120" as="geometry" />
        </mxCell>
        <mxCell id="pm9xN6t0t-_ZDv9CtfRk-73" value="Role" style="swimlane;fontStyle=0;childLayout=stackLayout;horizontal=1;startSize=30;horizontalStack=0;resizeParent=1;resizeParentMax=0;resizeLast=0;collapsible=1;marginBottom=0;" vertex="1" parent="1">
          <mxGeometry x="880" y="80" width="140" height="90" as="geometry" />
        </mxCell>
        <mxCell id="pm9xN6t0t-_ZDv9CtfRk-74" value="role_id PRIMARY INT " style="text;strokeColor=none;fillColor=none;align=left;verticalAlign=middle;spacingLeft=4;spacingRight=4;overflow=hidden;points=[[0,0.5],[1,0.5]];portConstraint=eastwest;rotatable=0;fontStyle=1" vertex="1" parent="pm9xN6t0t-_ZDv9CtfRk-73">
          <mxGeometry y="30" width="140" height="30" as="geometry" />
        </mxCell>
        <mxCell id="pm9xN6t0t-_ZDv9CtfRk-75" value="name VARCHAR(20)" style="text;strokeColor=none;fillColor=none;align=left;verticalAlign=middle;spacingLeft=4;spacingRight=4;overflow=hidden;points=[[0,0.5],[1,0.5]];portConstraint=eastwest;rotatable=0;" vertex="1" parent="pm9xN6t0t-_ZDv9CtfRk-73">
          <mxGeometry y="60" width="140" height="30" as="geometry" />
        </mxCell>
        <mxCell id="pm9xN6t0t-_ZDv9CtfRk-79" style="edgeStyle=orthogonalEdgeStyle;rounded=0;orthogonalLoop=1;jettySize=auto;html=1;entryX=0;entryY=0.5;entryDx=0;entryDy=0;" edge="1" parent="1" source="pm9xN6t0t-_ZDv9CtfRk-70" target="pm9xN6t0t-_ZDv9CtfRk-74">
          <mxGeometry relative="1" as="geometry" />
        </mxCell>
        <mxCell id="pm9xN6t0t-_ZDv9CtfRk-80" value="Master Deviasi" style="swimlane;fontStyle=0;childLayout=stackLayout;horizontal=1;startSize=30;horizontalStack=0;resizeParent=1;resizeParentMax=0;resizeLast=0;collapsible=1;marginBottom=0;" vertex="1" parent="1">
          <mxGeometry x="1290" y="60" width="205" height="150" as="geometry" />
        </mxCell>
        <mxCell id="pm9xN6t0t-_ZDv9CtfRk-81" value="master_deviasi_id PRIMARY INT " style="text;strokeColor=none;fillColor=none;align=left;verticalAlign=middle;spacingLeft=4;spacingRight=4;overflow=hidden;points=[[0,0.5],[1,0.5]];portConstraint=eastwest;rotatable=0;fontStyle=1" vertex="1" parent="pm9xN6t0t-_ZDv9CtfRk-80">
          <mxGeometry y="30" width="205" height="30" as="geometry" />
        </mxCell>
        <mxCell id="pm9xN6t0t-_ZDv9CtfRk-86" value="nama VARCHAR(100)" style="text;strokeColor=none;fillColor=none;align=left;verticalAlign=middle;spacingLeft=4;spacingRight=4;overflow=hidden;points=[[0,0.5],[1,0.5]];portConstraint=eastwest;rotatable=0;" vertex="1" parent="pm9xN6t0t-_ZDv9CtfRk-80">
          <mxGeometry y="60" width="205" height="30" as="geometry" />
        </mxCell>
        <mxCell id="pm9xN6t0t-_ZDv9CtfRk-87" value="app_level INT" style="text;strokeColor=none;fillColor=none;align=left;verticalAlign=middle;spacingLeft=4;spacingRight=4;overflow=hidden;points=[[0,0.5],[1,0.5]];portConstraint=eastwest;rotatable=0;" vertex="1" parent="pm9xN6t0t-_ZDv9CtfRk-80">
          <mxGeometry y="90" width="205" height="30" as="geometry" />
        </mxCell>
        <mxCell id="pm9xN6t0t-_ZDv9CtfRk-88" value="sts INT" style="text;strokeColor=none;fillColor=none;align=left;verticalAlign=middle;spacingLeft=4;spacingRight=4;overflow=hidden;points=[[0,0.5],[1,0.5]];portConstraint=eastwest;rotatable=0;" vertex="1" parent="pm9xN6t0t-_ZDv9CtfRk-80">
          <mxGeometry y="120" width="205" height="30" as="geometry" />
        </mxCell>
        <mxCell id="pm9xN6t0t-_ZDv9CtfRk-90" value="master_deviasi_role" style="swimlane;fontStyle=0;childLayout=stackLayout;horizontal=1;startSize=30;horizontalStack=0;resizeParent=1;resizeParentMax=0;resizeLast=0;collapsible=1;marginBottom=0;" vertex="1" parent="1">
          <mxGeometry x="1060" y="80" width="190" height="90" as="geometry" />
        </mxCell>
        <mxCell id="pm9xN6t0t-_ZDv9CtfRk-91" value="role_id PRIMARY INT " style="text;strokeColor=none;fillColor=none;align=left;verticalAlign=middle;spacingLeft=4;spacingRight=4;overflow=hidden;points=[[0,0.5],[1,0.5]];portConstraint=eastwest;rotatable=0;fontStyle=1" vertex="1" parent="pm9xN6t0t-_ZDv9CtfRk-90">
          <mxGeometry y="30" width="190" height="30" as="geometry" />
        </mxCell>
        <mxCell id="pm9xN6t0t-_ZDv9CtfRk-92" value="master_deviasi_id PRIMARY INT" style="text;strokeColor=none;fillColor=none;align=left;verticalAlign=middle;spacingLeft=4;spacingRight=4;overflow=hidden;points=[[0,0.5],[1,0.5]];portConstraint=eastwest;rotatable=0;fontStyle=1" vertex="1" parent="pm9xN6t0t-_ZDv9CtfRk-90">
          <mxGeometry y="60" width="190" height="30" as="geometry" />
        </mxCell>
        <mxCell id="pm9xN6t0t-_ZDv9CtfRk-93" style="edgeStyle=orthogonalEdgeStyle;rounded=0;orthogonalLoop=1;jettySize=auto;html=1;" edge="1" parent="1" source="pm9xN6t0t-_ZDv9CtfRk-91" target="pm9xN6t0t-_ZDv9CtfRk-74">
          <mxGeometry relative="1" as="geometry" />
        </mxCell>
        <mxCell id="pm9xN6t0t-_ZDv9CtfRk-94" style="edgeStyle=orthogonalEdgeStyle;rounded=0;orthogonalLoop=1;jettySize=auto;html=1;entryX=0;entryY=0.5;entryDx=0;entryDy=0;" edge="1" parent="1" source="pm9xN6t0t-_ZDv9CtfRk-92" target="pm9xN6t0t-_ZDv9CtfRk-81">
          <mxGeometry relative="1" as="geometry" />
        </mxCell>
        <mxCell id="pm9xN6t0t-_ZDv9CtfRk-95" value="Matrix_BOD_Master" style="swimlane;fontStyle=0;childLayout=stackLayout;horizontal=1;startSize=30;horizontalStack=0;resizeParent=1;resizeParentMax=0;resizeLast=0;collapsible=1;marginBottom=0;" vertex="1" parent="1">
          <mxGeometry x="880" y="-310" width="250" height="90" as="geometry" />
        </mxCell>
        <mxCell id="pm9xN6t0t-_ZDv9CtfRk-96" value="Matrix_BOD_Master_id PRIMARY INT " style="text;strokeColor=none;fillColor=none;align=left;verticalAlign=middle;spacingLeft=4;spacingRight=4;overflow=hidden;points=[[0,0.5],[1,0.5]];portConstraint=eastwest;rotatable=0;fontStyle=1" vertex="1" parent="pm9xN6t0t-_ZDv9CtfRk-95">
          <mxGeometry y="30" width="250" height="30" as="geometry" />
        </mxCell>
        <mxCell id="pm9xN6t0t-_ZDv9CtfRk-99" value="PH money" style="text;strokeColor=none;fillColor=none;align=left;verticalAlign=middle;spacingLeft=4;spacingRight=4;overflow=hidden;points=[[0,0.5],[1,0.5]];portConstraint=eastwest;rotatable=0;" vertex="1" parent="pm9xN6t0t-_ZDv9CtfRk-95">
          <mxGeometry y="60" width="250" height="30" as="geometry" />
        </mxCell>
        <mxCell id="pm9xN6t0t-_ZDv9CtfRk-101" value="Matrik_BOD_Detail" style="swimlane;fontStyle=0;childLayout=stackLayout;horizontal=1;startSize=30;horizontalStack=0;resizeParent=1;resizeParentMax=0;resizeLast=0;collapsible=1;marginBottom=0;" vertex="1" parent="1">
          <mxGeometry x="1220" y="-410" width="250" height="120" as="geometry" />
        </mxCell>
        <mxCell id="pm9xN6t0t-_ZDv9CtfRk-102" value="Matrix_BOD_Detail_id PRIMARY INT " style="text;strokeColor=none;fillColor=none;align=left;verticalAlign=middle;spacingLeft=4;spacingRight=4;overflow=hidden;points=[[0,0.5],[1,0.5]];portConstraint=eastwest;rotatable=0;fontStyle=1" vertex="1" parent="pm9xN6t0t-_ZDv9CtfRk-101">
          <mxGeometry y="30" width="250" height="30" as="geometry" />
        </mxCell>
        <mxCell id="pm9xN6t0t-_ZDv9CtfRk-103" value="Matrix_BOD_Master_id INT" style="text;strokeColor=none;fillColor=none;align=left;verticalAlign=middle;spacingLeft=4;spacingRight=4;overflow=hidden;points=[[0,0.5],[1,0.5]];portConstraint=eastwest;rotatable=0;" vertex="1" parent="pm9xN6t0t-_ZDv9CtfRk-101">
          <mxGeometry y="60" width="250" height="30" as="geometry" />
        </mxCell>
        <mxCell id="pm9xN6t0t-_ZDv9CtfRk-105" value="nip VARCHAR(20)" style="text;strokeColor=none;fillColor=none;align=left;verticalAlign=middle;spacingLeft=4;spacingRight=4;overflow=hidden;points=[[0,0.5],[1,0.5]];portConstraint=eastwest;rotatable=0;" vertex="1" parent="pm9xN6t0t-_ZDv9CtfRk-101">
          <mxGeometry y="90" width="250" height="30" as="geometry" />
        </mxCell>
        <mxCell id="pm9xN6t0t-_ZDv9CtfRk-104" style="edgeStyle=orthogonalEdgeStyle;rounded=0;orthogonalLoop=1;jettySize=auto;html=1;" edge="1" parent="1" source="pm9xN6t0t-_ZDv9CtfRk-103" target="pm9xN6t0t-_ZDv9CtfRk-96">
          <mxGeometry relative="1" as="geometry" />
        </mxCell>
        <mxCell id="pm9xN6t0t-_ZDv9CtfRk-108" style="edgeStyle=orthogonalEdgeStyle;rounded=0;orthogonalLoop=1;jettySize=auto;html=1;" edge="1" parent="1" source="pm9xN6t0t-_ZDv9CtfRk-106" target="pm9xN6t0t-_ZDv9CtfRk-107">
          <mxGeometry relative="1" as="geometry" />
        </mxCell>
        <mxCell id="pm9xN6t0t-_ZDv9CtfRk-106" value="MANY" style="text;html=1;align=center;verticalAlign=middle;resizable=0;points=[];autosize=1;strokeColor=none;fillColor=none;" vertex="1" parent="1">
          <mxGeometry x="1215" y="-440" width="50" height="20" as="geometry" />
        </mxCell>
        <mxCell id="pm9xN6t0t-_ZDv9CtfRk-107" value="ONE" style="text;html=1;align=center;verticalAlign=middle;resizable=0;points=[];autosize=1;strokeColor=none;fillColor=none;" vertex="1" parent="1">
          <mxGeometry x="1085" y="-340" width="40" height="20" as="geometry" />
        </mxCell>
        <mxCell id="pm9xN6t0t-_ZDv9CtfRk-109" value="&lt;h1&gt;Untuk Mendapatkan PH tertinggi Dari Matrix&lt;/h1&gt;" style="text;html=1;strokeColor=none;fillColor=none;spacing=5;spacingTop=-20;whiteSpace=wrap;overflow=hidden;rounded=0;" vertex="1" parent="1">
          <mxGeometry x="1520" y="-500" width="190" height="120" as="geometry" />
        </mxCell>
        <mxCell id="pm9xN6t0t-_ZDv9CtfRk-110" value="Masukan semua NIP menjadi XML" style="text;html=1;strokeColor=none;fillColor=none;align=center;verticalAlign=middle;whiteSpace=wrap;rounded=0;" vertex="1" parent="1">
          <mxGeometry x="1520" y="-360" width="200" height="40" as="geometry" />
        </mxCell>
        <mxCell id="pm9xN6t0t-_ZDv9CtfRk-111" value="Convert dari XML menjadi Temporary Table - @Approver" style="text;html=1;strokeColor=none;fillColor=none;align=center;verticalAlign=middle;whiteSpace=wrap;rounded=0;" vertex="1" parent="1">
          <mxGeometry x="1520" y="-310" width="200" height="40" as="geometry" />
        </mxCell>
        <mxCell id="pm9xN6t0t-_ZDv9CtfRk-112" value="SELECT @MatrixTanpaKombinasi = Matrix_BOD_Master_ID WHERE NIP NOT IN(@Approver)" style="text;html=1;strokeColor=none;fillColor=none;align=center;verticalAlign=middle;whiteSpace=wrap;rounded=0;" vertex="1" parent="1">
          <mxGeometry x="1515" y="-250" width="200" height="40" as="geometry" />
        </mxCell>
        <mxCell id="pm9xN6t0t-_ZDv9CtfRk-113" value="SELECT MAX(PH) where Mastrix_BOD_MASTER_ID NOT IN&lt;br&gt;(@MatrixTanpaKombinasi&amp;nbsp;)" style="text;html=1;strokeColor=none;fillColor=none;align=center;verticalAlign=middle;whiteSpace=wrap;rounded=0;" vertex="1" parent="1">
          <mxGeometry x="1515" y="-180" width="200" height="40" as="geometry" />
        </mxCell>
        <mxCell id="pm9xN6t0t-_ZDv9CtfRk-115" value="&lt;h1&gt;Get Entry Role&lt;/h1&gt;&lt;p&gt;Select Role From User where @XML Approver&lt;/p&gt;" style="text;html=1;strokeColor=none;fillColor=none;spacing=5;spacingTop=-20;whiteSpace=wrap;overflow=hidden;rounded=0;" vertex="1" parent="1">
          <mxGeometry x="200" y="-140" width="190" height="120" as="geometry" />
        </mxCell>
        <mxCell id="pm9xN6t0t-_ZDv9CtfRk-116" value="&lt;h1&gt;Get MAX PH,APP_LEVEL from User&lt;/h1&gt;&lt;p&gt;Select Max(PH),MAX(APP_LEVEL) From User where @XML Approver&lt;/p&gt;" style="text;html=1;strokeColor=none;fillColor=none;spacing=5;spacingTop=-20;whiteSpace=wrap;overflow=hidden;rounded=0;" vertex="1" parent="1">
          <mxGeometry x="430" y="-220" width="190" height="190" as="geometry" />
        </mxCell>
        <mxCell id="pm9xN6t0t-_ZDv9CtfRk-118" value="&lt;h1&gt;Contoh Request&lt;/h1&gt;&lt;p&gt;&lt;br&gt;&lt;/p&gt;" style="text;html=1;strokeColor=none;fillColor=none;spacing=5;spacingTop=-20;whiteSpace=wrap;overflow=hidden;rounded=0;" vertex="1" parent="1">
          <mxGeometry x="-150" y="-50" width="190" height="170" as="geometry" />
        </mxCell>
        <mxCell id="pm9xN6t0t-_ZDv9CtfRk-119" value="&lt;h1&gt;Step ini tidak ada perubahan&lt;/h1&gt;" style="text;html=1;strokeColor=none;fillColor=none;spacing=5;spacingTop=-20;whiteSpace=wrap;overflow=hidden;rounded=0;" vertex="1" parent="1">
          <mxGeometry x="710" y="1030" width="190" height="120" as="geometry" />
        </mxCell>
        <mxCell id="pm9xN6t0t-_ZDv9CtfRk-120" value="&lt;h1&gt;Get All Needed Role&lt;/h1&gt;&lt;p&gt;Select Distinct Role_id FROM Deviasi Detail -&amp;gt; master Deviasi -&amp;gt; deviasi_role where Deviasi in deviasi request&lt;/p&gt;" style="text;html=1;strokeColor=none;fillColor=none;spacing=5;spacingTop=-20;whiteSpace=wrap;overflow=hidden;rounded=0;" vertex="1" parent="1">
          <mxGeometry x="800" y="530" width="190" height="170" as="geometry" />
        </mxCell>
      </root>
    </mxGraphModel>
  </diagram>
</mxfile>
